<?xml version="1.0" standalone="no"?>
<!DOCTYPE svg PUBLIC "-//W3C//DTD SVG 20010904//EN"
 "http://www.w3.org/TR/2001/REC-SVG-20010904/DTD/svg10.dtd">
<svg version="1.0" xmlns="http://www.w3.org/2000/svg"
 width="144.000000pt" height="144.000000pt" viewBox="0 0 144.000000 144.000000"
 preserveAspectRatio="xMidYMid meet">
<metadata>
Created by potrace 1.11, written by Peter Selinger 2001-2013
</metadata>
<g transform="translate(0.000000,144.000000) scale(0.100000,-0.100000)"
fill="#000000" stroke="none">
<path d="M608 1389 c-273 -43 -504 -236 -580 -486 -16 -51 -21 -96 -21 -183 0
-100 3 -126 27 -195 82 -240 290 -417 547 -466 240 -45 493 32 660 201 207
209 253 497 122 760 -28 56 -59 97 -123 160 -97 98 -194 155 -324 190 -83 23
-228 32 -308 19z m143 -262 c12 3 19 0 19 -8 0 -9 3 -10 8 -4 10 15 35 12 50
-5 10 -11 12 -12 6 -1 -6 11 -3 13 12 7 10 -4 23 -8 29 -9 5 -1 16 -9 23 -17
10 -11 11 -11 6 -1 -4 8 13 2 37 -13 24 -14 43 -31 42 -36 -2 -6 1 -9 6 -7 12
3 81 -61 81 -74 0 -6 6 -7 13 -3 6 4 9 4 5 0 -4 -5 4 -26 18 -48 14 -22 20
-37 12 -32 -7 4 -5 -1 4 -12 13 -15 15 -23 6 -32 -9 -9 -8 -13 4 -17 10 -4 15
-17 13 -36 -1 -16 2 -29 7 -29 5 0 6 -5 3 -10 -4 -6 -12 -7 -18 -3 -7 3 -3 -4
8 -17 11 -13 14 -20 6 -15 -11 6 -13 4 -8 -7 3 -9 0 -21 -6 -28 -9 -10 -9 -11
2 -5 11 6 13 4 6 -11 -4 -10 -7 -27 -7 -36 0 -10 -3 -18 -7 -18 -4 0 -8 -7 -9
-15 -1 -8 -3 -22 -4 -30 -1 -8 -5 -12 -9 -10 -4 3 -12 -7 -17 -23 -13 -32 -60
-86 -85 -95 -10 -4 -15 -11 -12 -17 3 -5 1 -11 -4 -11 -6 -1 -17 -2 -23 -3 -7
-1 -12 -7 -11 -13 1 -6 -5 -10 -15 -9 -9 2 -23 -3 -31 -11 -7 -8 -19 -12 -26
-9 -8 3 -16 -2 -19 -9 -3 -8 -12 -12 -21 -9 -9 4 -15 1 -15 -7 0 -11 -3 -11
-10 1 -9 13 -10 13 -10 0 0 -12 -2 -12 -9 -2 -7 11 -9 10 -15 -3 -3 -10 -11
-13 -18 -8 -19 11 -37 12 -44 2 -3 -5 -14 -5 -25 2 -12 6 -23 8 -26 5 -4 -3
-13 0 -21 7 -11 8 -14 9 -9 0 5 -8 -1 -10 -20 -7 -14 3 -31 8 -37 12 -6 3 -20
8 -30 9 -11 2 -27 10 -36 18 -9 8 -20 12 -23 8 -4 -3 -7 -2 -7 3 0 6 -18 20
-40 33 -22 12 -40 29 -40 37 0 8 -4 12 -10 9 -5 -3 -10 -2 -10 3 0 8 -11 23
-50 70 -6 6 -8 12 -4 12 3 0 1 6 -5 13 -6 8 -8 17 -4 20 3 4 1 7 -5 7 -7 0
-12 9 -12 20 0 11 -4 20 -9 20 -10 0 -7 32 5 52 4 7 3 8 -4 4 -7 -4 -12 -1
-12 8 0 9 6 16 13 16 9 0 9 2 -1 9 -15 9 -13 42 3 53 6 5 5 8 -2 8 -7 0 -13 5
-13 11 0 5 6 7 13 3 9 -5 9 -4 0 6 -14 15 -5 43 11 33 6 -4 5 1 -3 10 -9 12
-10 17 -2 17 7 0 10 4 6 9 -3 5 -1 12 5 16 6 4 8 11 5 16 -4 5 -2 9 3 9 5 0
12 9 15 21 4 13 10 18 18 13 8 -5 10 -3 5 5 -5 7 0 19 10 27 11 9 12 12 4 8
-8 -4 -2 5 13 20 16 14 33 23 39 20 6 -4 8 -2 4 4 -7 12 42 54 55 46 5 -3 9
-1 9 5 0 9 26 21 44 20 5 0 12 4 16 11 4 6 17 12 28 13 12 1 22 5 22 10 0 5 6
4 14 -2 10 -8 16 -9 21 -1 9 14 28 13 19 -2 -5 -10 -4 -10 6 -1 7 6 19 9 28 6
11 -5 13 -3 7 7 -6 10 -4 10 10 3 10 -6 26 -8 36 -6z"/>
<path d="M701 1055 c-1 -6 -17 -10 -36 -10 -19 1 -35 -3 -35 -8 0 -5 -7 -6
-15 -3 -9 3 -18 -1 -21 -9 -4 -8 -10 -15 -16 -15 -5 0 -6 5 -3 11 4 6 -2 5
-14 -3 -12 -7 -21 -17 -21 -22 0 -4 -9 -6 -19 -3 -13 3 -18 1 -15 -8 3 -7 -4
-16 -15 -20 -12 -3 -19 -11 -16 -16 5 -8 -6 -13 -25 -11 -3 0 -7 -8 -7 -20 -1
-11 -12 -28 -24 -39 -12 -10 -19 -19 -14 -19 4 0 2 -7 -5 -15 -6 -8 -8 -20 -4
-26 5 -9 2 -10 -11 -5 -14 5 -16 4 -7 -7 9 -10 8 -17 0 -25 -9 -9 -9 -12 1
-12 7 0 9 -5 5 -12 -11 -17 -12 -48 -3 -48 5 0 4 -11 0 -24 -7 -17 -5 -27 7
-40 12 -12 13 -16 3 -16 -11 0 -11 -3 0 -17 8 -9 13 -19 12 -22 -1 -3 1 -8 4
-11 4 -3 3 1 -2 9 -6 10 -4 12 4 6 7 -4 11 -15 8 -25 -3 -12 4 -22 19 -31 13
-7 26 -20 30 -31 3 -10 9 -18 13 -18 4 0 19 -10 32 -21 40 -35 68 -51 78 -45
5 4 17 -1 25 -10 9 -8 16 -10 16 -4 0 7 7 7 23 -2 28 -15 56 -18 64 -5 3 5 9
3 14 -4 7 -11 9 -11 9 -1 0 10 5 10 21 1 15 -7 19 -8 15 0 -5 7 3 10 23 7 17
-2 28 0 26 4 -3 4 2 11 11 14 10 4 13 2 8 -6 -4 -7 7 -2 24 11 18 12 32 19 32
15 0 -4 7 1 15 12 8 10 15 16 15 12 0 -4 15 9 33 28 17 20 43 48 57 62 14 14
19 22 13 18 -7 -4 -13 -3 -13 2 0 6 7 13 16 16 8 3 12 10 9 16 -3 5 -1 10 6
10 9 0 9 3 0 14 -8 10 -9 16 -1 21 6 3 7 12 3 18 -4 7 2 5 12 -3 17 -14 17
-14 8 5 -6 11 -9 32 -7 48 1 15 -2 27 -8 27 -6 0 -6 6 2 15 7 8 8 15 3 15 -5
0 -10 9 -11 20 -4 44 -6 50 -15 50 -6 0 -8 3 -4 6 5 6 0 15 -31 49 -7 8 -10
15 -6 15 9 0 -59 60 -69 60 -5 0 -5 4 -2 10 3 5 0 7 -7 5 -8 -3 -23 3 -34 13
-11 10 -27 18 -36 16 -9 -1 -19 4 -22 12 -4 11 -11 12 -23 5 -13 -6 -24 -5
-37 5 -13 9 -24 10 -37 4 -12 -7 -19 -6 -22 3 -3 6 -6 7 -6 2z"/>
</g>
</svg>
